<svg viewBox="0 0 280 280" version="1.1" xmlns="http://www.w3.org/2000/svg" xmlns:xlink="http://www.w3.org/1999/xlink"><g id="Canvas" transform="translate(238 294)"><clipPath id="clip-0" clip-rule="evenodd"><path d="M -238 -294L 42 -294L 42 -14L -238 -14L -238 -294Z" fill="#FFFFFF"/></clipPath><g id="Frame" clip-path="url(#clip-0)"><g id="Rectangle"><use xlink:href="#path0_fill" transform="translate(-238 -294)" fill="#000000" fill-opacity="0.3"/><mask id="mask0_outline_ins"><use xlink:href="#path0_fill" fill="white" transform="translate(-238 -294)"/></mask><g mask="url(#mask0_outline_ins)"><use xlink:href="#path1_stroke_2x" transform="translate(-238 -294)" fill="#FFFFFF"/></g></g><g id="SM"><use xlink:href="#path2_fill" transform="translate(-217 -248)" fill="#FFFFFF"/></g></g></g><defs><path id="path0_fill" d="M 0 0L 280 0L 280 280L 0 280L 0 0Z"/><path id="path1_stroke_2x" d="M 0 0L 0 -10L -10 -10L -10 0L 0 0ZM 280 0L 290 0L 290 -10L 280 -10L 280 0ZM 280 280L 280 290L 290 290L 290 280L 280 280ZM 0 280L -10 280L -10 290L 0 290L 0 280ZM 0 10L 280 10L 280 -10L 0 -10L 0 10ZM 270 0L 270 280L 290 280L 290 0L 270 0ZM 280 270L 0 270L 0 290L 280 290L 280 270ZM 10 280L 10 0L -10 0L -10 280L 10 280Z"/><path id="path2_fill" d="M 97.89 53.38C 98.15 54.8533 98.3233 55.8933 98.41 56.5C 98.5833 57.02 98.67 57.7567 98.67 58.71C 98.67 61.57 98.02 64.2567 96.72 66.77C 95.5067 69.1967 93.8167 70.93 91.65 71.97C 89.9167 69.63 87.7933 67.6367 85.28 65.99C 82.7667 64.2567 79.9933 62.87 76.96 61.83C 74.0133 60.7033 70.9367 59.88 67.73 59.36C 64.5233 58.84 61.4033 58.58 58.37 58.58C 55.3367 58.58 52.4767 58.84 49.79 59.36C 47.19 59.7933 44.85 60.4433 42.77 61.31C 40.7767 62.09 39.1733 63.0867 37.96 64.3C 36.8333 65.5133 36.27 66.9 36.27 68.46C 36.53 70.3667 37.7 72.3167 39.78 74.31C 41.86 76.2167 44.4167 78.1233 47.45 80.03C 50.4833 81.85 53.82 83.67 57.46 85.49C 61.1867 87.31 64.8267 89.0433 68.38 90.69C 72.8 92.77 76.6133 94.72 79.82 96.54C 83.0267 98.2733 85.67 100.223 87.75 102.39C 89.83 104.47 91.39 106.853 92.43 109.54C 93.47 112.227 93.99 115.477 93.99 119.29C 93.99 123.71 93.2533 127.87 91.78 131.77C 90.3067 135.583 88.14 138.92 85.28 141.78C 82.5067 144.64 79.1267 146.85 75.14 148.41C 71.1533 150.057 66.69 150.88 61.75 150.88C 56.8967 150.88 51.6533 150.143 46.02 148.67C 40.3867 147.197 35.1 145.16 30.16 142.56C 25.3067 140.047 21.2333 137.143 17.94 133.85C 14.7333 130.47 13.13 126.917 13.13 123.19C 13.13 121.457 13.6067 119.247 14.56 116.56C 15.6 113.873 17.42 111.057 20.02 108.11C 20.28 110.71 21.6667 113.787 24.18 117.34C 26.78 120.893 30.6367 124.187 35.75 127.22C 40.5167 129.993 45.4133 132.03 50.44 133.33C 55.5533 134.543 60.32 135.15 64.74 135.15C 69.5933 135.15 73.5367 134.543 76.57 133.33C 79.6033 132.117 81.9867 130.687 83.72 129.04C 85.4533 127.307 86.6667 125.573 87.36 123.84C 88.0533 122.107 88.4433 120.72 88.53 119.68C 88.4433 117.947 87.62 116.3 86.06 114.74C 84.5867 113.093 82.55 111.533 79.95 110.06C 77.4367 108.5 74.49 106.94 71.11 105.38C 67.73 103.82 64.22 102.26 60.58 100.7C 55.12 98.2733 50.3967 96.02 46.41 93.94C 42.51 91.7733 39.26 89.6067 36.66 87.44C 34.1467 85.1867 32.2833 82.8467 31.07 80.42C 29.9433 77.9933 29.38 75.22 29.38 72.1C 29.38 67.2467 30.8533 62.6533 33.8 58.32C 36.7467 53.9867 40.9933 50.6933 46.54 48.44C 49.3133 47.2267 52.26 46.36 55.38 45.84C 58.5867 45.32 61.7067 45.06 64.74 45.06C 70.46 45.06 76.05 45.84 81.51 47.4C 86.97 48.96 92.43 50.9533 97.89 53.38ZM 158.099 150.62C 157.926 150.707 157.753 150.75 157.579 150.75C 157.406 150.75 157.059 150.75 156.539 150.75C 155.326 150.75 153.896 150.533 152.249 150.1C 150.689 149.753 149.129 149.277 147.569 148.67C 146.096 148.15 144.796 147.543 143.669 146.85C 142.629 146.157 141.979 145.55 141.719 145.03C 141.633 143.817 141.589 142.56 141.589 141.26C 141.589 139.96 141.589 138.703 141.589 137.49C 141.589 127.783 142.283 117.643 143.669 107.07C 145.143 96.4967 147.526 85.0567 150.819 72.75C 151.166 71.5367 151.513 70.02 151.859 68.2C 152.293 66.2933 152.726 64.2567 153.159 62.09C 151.079 63.7367 148.609 66.38 145.749 70.02C 142.889 73.5733 139.856 77.82 136.649 82.76C 133.529 87.6133 130.366 92.9867 127.159 98.88C 124.039 104.687 121.179 110.623 118.579 116.69C 115.979 122.67 113.726 128.607 111.819 134.5C 109.999 140.393 108.873 145.853 108.439 150.88C 104.279 149.667 101.376 148.453 99.7293 147.24C 98.1693 146.027 97.3893 144.553 97.3893 142.82C 97.3893 141.26 97.866 139.05 98.8193 136.19C 99.7726 133.33 101.116 129.95 102.849 126.05C 104.583 122.15 106.706 117.817 109.219 113.05C 111.733 108.197 114.506 102.997 117.539 97.45C 121.006 91.1233 124.386 85.1867 127.679 79.64C 131.059 74.0933 134.353 69.0667 137.559 64.56C 140.766 60.0533 143.886 56.1533 146.919 52.86C 150.039 49.5667 153.116 47.0533 156.149 45.32C 157.363 45.32 158.966 45.6233 160.959 46.23C 163.039 46.8367 165.033 47.5733 166.939 48.44C 168.933 49.3067 170.666 50.2167 172.139 51.17C 173.699 52.0367 174.566 52.7733 174.739 53.38C 173.526 55.8067 172.096 59.4467 170.449 64.3C 168.803 69.1533 167.113 74.6567 165.379 80.81C 163.733 86.9633 162.129 93.5067 160.569 100.44C 159.096 107.287 157.926 113.873 157.059 120.2C 159.053 115.433 161.349 110.493 163.949 105.38C 166.636 100.18 169.453 95.0667 172.399 90.04C 175.346 84.9267 178.336 79.9867 181.369 75.22C 184.489 70.4533 187.523 66.12 190.469 62.22C 193.416 58.2333 196.146 54.7667 198.659 51.82C 201.259 48.8733 203.556 46.7067 205.549 45.32C 206.763 45.32 208.366 45.6233 210.359 46.23C 212.439 46.8367 214.433 47.5733 216.339 48.44C 218.333 49.3067 220.066 50.2167 221.539 51.17C 223.099 52.0367 223.966 52.7733 224.139 53.38C 221.366 58.32 218.939 64.3433 216.859 71.45C 214.779 78.5567 213.003 86.01 211.529 93.81C 210.143 101.61 209.059 109.367 208.279 117.08C 207.586 124.707 207.239 131.553 207.239 137.62C 207.239 139.613 207.239 141.693 207.239 143.86C 207.239 146.027 207.326 148.28 207.499 150.62C 206.286 150.62 204.813 150.447 203.079 150.1C 201.433 149.84 199.786 149.45 198.139 148.93C 196.579 148.41 195.149 147.803 193.849 147.11C 192.549 146.503 191.639 145.81 191.119 145.03C 191.033 143.817 190.989 142.56 190.989 141.26C 190.989 139.96 190.989 138.703 190.989 137.49C 190.989 127.783 191.683 117.643 193.069 107.07C 194.543 96.4967 196.926 85.0567 200.219 72.75C 200.566 71.5367 200.956 69.89 201.389 67.81C 201.823 65.73 202.256 63.5633 202.689 61.31C 200.263 62.5233 197.489 64.8633 194.369 68.33C 191.336 71.71 188.216 75.87 185.009 80.81C 181.889 85.6633 178.769 91.08 175.649 97.06C 172.616 103.04 169.843 109.15 167.329 115.39C 164.903 121.543 162.823 127.697 161.089 133.85C 159.443 139.917 158.446 145.507 158.099 150.62Z"/></defs></svg>